<svg width="66" height="66" viewBox="0 0 66 66" fill="none" xmlns="http://www.w3.org/2000/svg">
<path d="M54.1661 27.2092C54.9135 31.8703 59.6087 31.8741 62.9362 31.0085C63.6348 30.8268 64.3526 31.3566 64.2977 32.0764C63.2329 46.0232 57.7566 54.239 49.3188 59.6793C34.991 67.3579 19.9096 64.225 10.3768 54.8262C0.843913 45.4274 -0.270418 27.1535 5.6016 18.0143C13.1414 5.38001 23.4795 2.8967 33.3929 1.74272C34.129 1.65705 34.6935 2.38658 34.5265 3.10851C33.3018 8.40185 36.4935 11.6163 38.9306 12.9276C39.387 13.1732 39.6408 13.7078 39.5091 14.2091C36.0362 27.4268 46.1246 27.8896 52.7521 26.2181C53.4073 26.0528 54.0592 26.542 54.1661 27.2092Z" stroke="#333" stroke-width="3"/>
<ellipse cx="27.0599" cy="14.8807" rx="2.38417" ry="2.34949" fill="#333"/>
<ellipse cx="16.7293" cy="29.7625" rx="4.76833" ry="4.69897" fill="#333"/>
<ellipse cx="19.9055" cy="46.994" rx="3.17889" ry="3.13265" fill="#333"/>
<ellipse cx="31.8256" cy="33.6786" rx="2.38417" ry="2.34949" fill="#333"/>
<ellipse cx="42.9541" cy="50.91" rx="3.97361" ry="3.91581" fill="#333"/>
<ellipse cx="48.1789" cy="6.13265" rx="3.17889" ry="3.13265" fill="#333"/>
<ellipse cx="48.3842" cy="16.3495" rx="2.38417" ry="2.34949" fill="#333"/>
<ellipse cx="60.5894" cy="20.5663" rx="1.58945" ry="1.56632" fill="#333"/>
</svg>
